# xmcd
#
# Track frame offsets:
#	150
#	20882
#	38947
#	56357
#	81945
#	104967
#	122055
#	138352
#	167112
#	184400
#	201830
#	220700
#	234315
#	250032
#	262252
#
# Disc length: 3668
#
# Revision: 1
# Processed by: cddbd v1.5.1PL0 Copyright (c) Steve Scherf et al.
# Submitted via: ExactAudioCopy v0.95a4
# Normalized: r0:TDELIM( - )
#
DISCID=e20e520f
DTITLE=Various Artist - Rhythm and Soul n°17
DYEAR=2000
DGENRE=Soul
TTITLE0=US 3 - Cantaloop (Flip Fantasia)
TTITLE1=KC and The Sunshine Band - I'm Your Boogie Man
TTITLE2=Stretch - Why Did You Do It
TTITLE3=Brass Construction - Walkin' The Line
TTITLE4=Shalamar - A Night To Remember
TTITLE5=Evelyn Thomas - High Energy
TTITLE6=Grace Jones - Pull Up To The Bumper
TTITLE7=Bar-Kays - Sexomatic
TTITLE8=The Whispers - And The Beat Goes On
TTITLE9=Bobby McFerrin - Don't Worry Be Happy
TTITLE10=Dru Hill - Tell Me
TTITLE11=The Drifters - On Broadway
TTITLE12=The Staple Singers - Respect Yourself
TTITLE13=Otis Redding - Satisfaction
TTITLE14=Ike and Tina Turner - A Fool In Love
EXTD=
EXTT0=
EXTT1=
EXTT2=
EXTT3=
EXTT4=
EXTT5=
EXTT6=
EXTT7=
EXTT8=
EXTT9=
EXTT10=
EXTT11=
EXTT12=
EXTT13=
EXTT14=
PLAYORDER=
